<svg xmlns="http://www.w3.org/2000/svg" xmlns:xlink="http://www.w3.org/1999/xlink" width="1951" height="327" viewBox="0 0 1951 327">
  <defs>
    <clipPath id="clip-Web_1280_4">
      <rect width="1951" height="327"/>
    </clipPath>
  </defs>
  <g id="Web_1280_4" data-name="Web 1280 – 4" clip-path="url(#clip-Web_1280_4)">
    <g id="Group_3" data-name="Group 3">
      <rect id="Rectangle_1" data-name="Rectangle 1" width="327" height="327" rx="63" fill="#ff5c04"/>
      <g id="Group_2" data-name="Group 2" transform="translate(75.439 70.532)">
        <path id="Path_1" data-name="Path 1" d="M67.73,100.1V21.788A9.788,9.788,0,0,0,57.942,12H18.788A9.788,9.788,0,0,0,9,21.788V100.1" transform="translate(49.73 85.889)" fill="none" stroke="#fff" stroke-linecap="round" stroke-linejoin="round" stroke-width="20"/>
        <path id="Path_2" data-name="Path 2" d="M3,80.311a19.579,19.579,0,0,1,6.944-14.96L78.459,6.624a19.577,19.577,0,0,1,25.274,0l68.519,58.73a19.577,19.577,0,0,1,6.94,14.957v88.1a19.577,19.577,0,0,1-19.577,19.577H22.577A19.577,19.577,0,0,1,3,168.407Z" transform="translate(-3 -2)" fill="none" stroke="#fff" stroke-linecap="round" stroke-linejoin="round" stroke-width="20"/>
      </g>
    </g>
    <text id="homestayOS" transform="translate(1147 252)" fill="#041229" font-size="240" font-family="Poppins-Medium, Poppins" font-weight="500"><tspan x="-779.28" y="0">homestayOS</tspan></text>
  </g>
</svg>
